<?xml version="1.0" encoding="UTF-8"?>
<svg width="200" height="80" viewBox="0 0 200 80" xmlns="http://www.w3.org/2000/svg">
  <!-- Background Gradient -->
  <defs>
    <linearGradient id="logoGradient" x1="0%" y1="0%" x2="100%" y2="100%">
      <stop offset="0%" stop-color="#ff6b00" />
      <stop offset="50%" stop-color="#1e90ff" />
      <stop offset="100%" stop-color="#a0e4f1" />
    </linearGradient>
    
    <!-- Frost/Ice Filter -->
    <filter id="frostEffect" x="-10%" y="-10%" width="120%" height="120%">
      <feTurbulence type="fractalNoise" baseFrequency="0.1" numOctaves="2" result="noise" />
      <feDisplacementMap in="SourceGraphic" in2="noise" scale="3" xChannelSelector="R" yChannelSelector="G" />
      <feGaussianBlur stdDeviation="0.5" />
    </filter>
  </defs>
  
  <!-- Logo Container -->
  <g id="logoContainer">
    <!-- Beer Jug Icon -->
    <g id="beerJug" transform="translate(25, 15) scale(0.7)">
      <!-- Jug Base -->
      <path d="M35,15 C25,15 20,25 20,50 C20,65 25,75 35,75 L55,75 C65,75 70,65 70,50 C70,25 65,15 55,15 L35,15 Z" 
            fill="#f5f5f5" stroke="#333" stroke-width="2" />
      
      <!-- Jug Handle -->
      <path d="M70,30 C85,35 85,55 70,60" 
            fill="none" stroke="#333" stroke-width="3" stroke-linecap="round" />
      
      <!-- Jug Rim -->
      <path d="M30,15 C30,10 60,10 60,15" 
            fill="none" stroke="#333" stroke-width="2" />
      
      <!-- Beer Liquid -->
      <path d="M25,25 L25,65 C25,70 30,70 35,70 L55,70 C60,70 65,70 65,65 L65,25 C55,25 35,25 25,25 Z" 
            fill="url(#logoGradient)" />
      
      <!-- Frost Elements -->
      <g filter="url(#frostEffect)">
        <circle cx="30" cy="30" r="3" fill="white" opacity="0.7" />
        <circle cx="60" cy="40" r="4" fill="white" opacity="0.6" />
        <circle cx="35" cy="55" r="2.5" fill="white" opacity="0.8" />
        <path d="M40,28 L45,33 M42.5,26 L42.5,35" stroke="white" stroke-width="1.5" opacity="0.9" />
        <path d="M55,50 L60,55 M57.5,48 L57.5,57" stroke="white" stroke-width="1.5" opacity="0.9" />
      </g>
    </g>
    
    <!-- Text Elements -->
    <g id="logoText" transform="translate(95, 45)">
      <!-- BIER -->
      <text x="0" y="0" font-family="Arial, sans-serif" font-weight="bold" font-size="24" fill="#ff6b00">
        BIER
      </text>
      
      <!-- TEMPRATUUR -->
      <text x="0" y="20" font-family="Arial, sans-serif" font-weight="bold" font-size="18" fill="#1e90ff">
        TEMPRATUUR
      </text>
      
      <!-- Tagline -->
      <text x="5" y="40" font-family="Arial, sans-serif" font-style="italic" font-size="10" fill="#333" opacity="0.8">
        Breek Jou Vriespunt
      </text>
    </g>
    
    <!-- Temperature Indicator -->
    <g id="temperatureScale" transform="translate(95, 15)">
      <rect x="0" y="0" width="80" height="6" rx="3" ry="3" fill="#333" opacity="0.3" />
      <rect x="0" y="0" width="50" height="6" rx="3" ry="3" fill="url(#logoGradient)" />
      <circle cx="50" cy="3" r="5" fill="white" stroke="#333" stroke-width="1" />
    </g>
    
    <!-- Ice/Frost Decorative Elements -->
    <g id="decorativeElements">
      <path d="M15,15 L10,10 M15,15 L20,10 M15,15 L15,5" stroke="#a0e4f1" stroke-width="1.5" opacity="0.7" />
      <path d="M185,65 L180,70 M185,65 L190,70 M185,65 L185,75" stroke="#a0e4f1" stroke-width="1.5" opacity="0.7" />
      <circle cx="15" cy="70" r="3" fill="#ff6b00" opacity="0.5" />
      <circle cx="185" cy="15" r="3" fill="#ff6b00" opacity="0.5" />
    </g>
  </g>
</svg> 