<svg xmlns="http://www.w3.org/2000/svg" viewBox="0 0 1000 200" width="1000" height="200">
  <!-- Ice Base -->
  <path d="M0,0 
          H1000 
          V60 
          C950,70 920,50 900,70 
          C880,90 860,30 840,50 
          C820,70 800,60 780,40 
          C760,20 740,70 720,50 
          C700,30 680,60 660,40 
          C640,20 620,65 600,45 
          C580,25 560,55 540,35 
          C520,15 500,60 480,40 
          C460,20 440,50 420,30 
          C400,10 380,60 360,40 
          C340,20 320,55 300,35 
          C280,15 260,45 240,25 
          C220,5 200,60 180,40 
          C160,20 140,50 120,30 
          C100,10 80,45 60,25 
          C40,5 20,40 0,20 
          Z" 
       fill="#ffffff" 
       fill-opacity="0.8"
       stroke="none" />
  
  <!-- Drips -->
  <g fill="#ffffff" fill-opacity="0.7" stroke="none">
    <path d="M100,60 Q100,100 90,140 Q80,160 100,170 Q120,160 110,140 Q100,100 100,60 Z" />
    <path d="M300,60 Q300,120 290,150 Q280,180 300,190 Q320,180 310,150 Q300,120 300,60 Z" />
    <path d="M500,60 Q500,90 490,130 Q480,150 500,160 Q520,150 510,130 Q500,90 500,60 Z" />
    <path d="M700,60 Q700,110 690,140 Q680,160 700,170 Q720,160 710,140 Q700,110 700,60 Z" />
    <path d="M900,60 Q900,100 890,130 Q880,150 900,160 Q920,150 910,130 Q900,100 900,60 Z" />
  </g>
  
  <!-- Ice Highlights -->
  <g fill="#ffffff" fill-opacity="0.3" stroke="none">
    <ellipse cx="150" cy="30" rx="20" ry="10" />
    <ellipse cx="350" cy="25" rx="15" ry="8" />
    <ellipse cx="550" cy="35" rx="25" ry="12" />
    <ellipse cx="750" cy="20" rx="18" ry="9" />
    <ellipse cx="950" cy="30" rx="22" ry="11" />
  </g>
</svg> 