<svg xmlns="http://www.w3.org/2000/svg" viewBox="0 0 200 200" width="200" height="200">
  <g fill="none" stroke="#fff" stroke-width="3" stroke-linecap="round">
    <!-- Main Rays -->
    <path d="M100,0 L100,35" stroke-opacity="0.9" />
    <path d="M100,165 L100,200" stroke-opacity="0.9" />
    <path d="M0,100 L35,100" stroke-opacity="0.9" />
    <path d="M165,100 L200,100" stroke-opacity="0.9" />
    
    <!-- Diagonal Rays -->
    <path d="M29.3,29.3 L53.5,53.5" stroke-opacity="0.8" />
    <path d="M146.5,146.5 L170.7,170.7" stroke-opacity="0.8" />
    <path d="M29.3,170.7 L53.5,146.5" stroke-opacity="0.8" />
    <path d="M146.5,53.5 L170.7,29.3" stroke-opacity="0.8" />
    
    <!-- Secondary Rays -->
    <path d="M50,14.6 L64.6,41.4" stroke-opacity="0.7" />
    <path d="M135.4,158.6 L150,185.4" stroke-opacity="0.7" />
    <path d="M14.6,50 L41.4,64.6" stroke-opacity="0.7" />
    <path d="M158.6,135.4 L185.4,150" stroke-opacity="0.7" />
    <path d="M14.6,150 L41.4,135.4" stroke-opacity="0.7" />
    <path d="M158.6,64.6 L185.4,50" stroke-opacity="0.7" />
    <path d="M50,185.4 L64.6,158.6" stroke-opacity="0.7" />
    <path d="M135.4,41.4 L150,14.6" stroke-opacity="0.7" />
    
    <!-- More subtle rays -->
    <path d="M75,7.7 L82.3,36.6" stroke-opacity="0.6" stroke-width="2" />
    <path d="M117.7,163.4 L125,192.3" stroke-opacity="0.6" stroke-width="2" />
    <path d="M7.7,75 L36.6,82.3" stroke-opacity="0.6" stroke-width="2" />
    <path d="M163.4,117.7 L192.3,125" stroke-opacity="0.6" stroke-width="2" />
    <path d="M7.7,125 L36.6,117.7" stroke-opacity="0.6" stroke-width="2" />
    <path d="M163.4,82.3 L192.3,75" stroke-opacity="0.6" stroke-width="2" />
    <path d="M75,192.3 L82.3,163.4" stroke-opacity="0.6" stroke-width="2" />
    <path d="M117.7,36.6 L125,7.7" stroke-opacity="0.6" stroke-width="2" />
  </g>
</svg> 